HIERARCHY
ROOT hip
{
  OFFSET 0 0 0
  CHANNELS 6 Xposition Yposition Zposition Zrotation Yrotation Xrotation
  JOINT abdomen
  {
    OFFSET 0 20.6881 -0.73152
    CHANNELS 3 Zrotation Xrotation Yrotation
    JOINT chest
    {
      OFFSET 0 11.7043 -0.48768
      CHANNELS 3 Zrotation Xrotation Yrotation
      JOINT neck
      {
        OFFSET 0 22.1894 -2.19456
        CHANNELS 3 Zrotation Xrotation Yrotation
        JOINT head
        {
          OFFSET -0.24384 7.07133 1.2192
          CHANNELS 3 Zrotation Xrotation Yrotation
          JOINT leftEye
          {
            OFFSET 4.14528 8.04674 8.04672
            CHANNELS 3 Zrotation Xrotation Yrotation
            End Site
            {
              OFFSET 1 0 0
            }
          }
          JOINT rightEye
          {
            OFFSET -3.6576 8.04674 8.04672
            CHANNELS 3 Zrotation Xrotation Yrotation
            End Site
            {
              OFFSET 1 0 0
            }
          }
        }
      }
      JOINT rCollar
      {
        OFFSET -2.68224 19.2634 -4.8768
        CHANNELS 3 Zrotation Xrotation Yrotation
        JOINT rShldr
        {
          OFFSET -8.77824 -1.95073 1.46304
          CHANNELS 3 Zrotation Xrotation Yrotation
          JOINT rForeArm
          {
            OFFSET -28.1742 -1.7115 0.48768
            CHANNELS 3 Zrotation Xrotation Yrotation
            JOINT rHand
            {
              OFFSET -22.5879 0.773209 7.07136
              CHANNELS 3 Zrotation Xrotation Yrotation
              JOINT rThumb1
              {
                OFFSET -1.2192 -0.487915 3.41376
                CHANNELS 3 Zrotation Xrotation Yrotation
                JOINT rThumb2
                {
                  OFFSET -3.37035 -0.52449 3.41376
                  CHANNELS 3 Zrotation Xrotation Yrotation
                  End Site
                  {
                    OFFSET -1.78271 -1.18214 1.43049
                  }
                }
              }
              JOINT rIndex1
              {
                OFFSET -7.75947 0.938293 5.60832
                CHANNELS 3 Zrotation Xrotation Yrotation
                JOINT rIndex2
                {
                  OFFSET -2.54057 -0.884171 1.56538
                  CHANNELS 3 Zrotation Xrotation Yrotation
                  End Site
                  {
                    OFFSET -1.62519 -0.234802 1.16502
                  }
                }
              }
              JOINT rMid1
              {
                OFFSET -8.24714 1.18213 3.41376
                CHANNELS 3 Zrotation Xrotation Yrotation
                JOINT rMid2
                {
                  OFFSET -3.10165 -0.590103 1.0647
                  CHANNELS 3 Zrotation Xrotation Yrotation
                  End Site
                  {
                    OFFSET -2.48547 -0.328903 0.83742
                  }
                }
              }
              JOINT rRing1
              {
                OFFSET -8.82822 0.546677 1.51678
                CHANNELS 3 Zrotation Xrotation Yrotation
                JOINT rRing2
                {
                  OFFSET -2.60934 -0.819778 -0.0198488
                  CHANNELS 3 Zrotation Xrotation Yrotation
                  End Site
                  {
                    OFFSET -2.33842 -0.294052 0.168128
                  }
                }
              }
              JOINT rPinky1
              {
                OFFSET -8.27202 -0.0477905 -0.4584
                CHANNELS 3 Zrotation Xrotation Yrotation
                JOINT rPinky2
                {
                  OFFSET -1.82734 -0.647385 -0.700984
                  CHANNELS 3 Zrotation Xrotation Yrotation
                  End Site
                  {
                    OFFSET -1.69225 -0.51767 -0.607171
                  }
                }
              }
            }
          }
        }
      }
      JOINT lCollar
      {
        OFFSET 2.68224 19.2634 -4.8768
        CHANNELS 3 Zrotation Xrotation Yrotation
        JOINT lShldr
        {
          OFFSET 8.77824 -1.95073 1.46304
          CHANNELS 3 Zrotation Xrotation Yrotation
          JOINT lForeArm
          {
            OFFSET 28.1742 -1.7115 0.48768
            CHANNELS 3 Zrotation Xrotation Yrotation
            JOINT lHand
            {
              OFFSET 22.5879 0.773209 7.07136
              CHANNELS 3 Zrotation Xrotation Yrotation
              JOINT lThumb1
              {
                OFFSET 1.2192 -0.487915 3.41376
                CHANNELS 3 Zrotation Xrotation Yrotation
                JOINT lThumb2
                {
                  OFFSET 3.37035 -0.52449 3.41376
                  CHANNELS 3 Zrotation Xrotation Yrotation
                  End Site
                  {
                    OFFSET 1.78271 -1.18214 1.43049
                  }
                }
              }
              JOINT lIndex1
              {
                OFFSET 7.75947 0.938293 5.60832
                CHANNELS 3 Zrotation Xrotation Yrotation
                JOINT lIndex2
                {
                  OFFSET 2.54057 -0.884171 1.56538
                  CHANNELS 3 Zrotation Xrotation Yrotation
                  End Site
                  {
                    OFFSET 1.62519 -0.234802 1.16502
                  }
                }
              }
              JOINT lMid1
              {
                OFFSET 8.24714 1.18213 3.41376
                CHANNELS 3 Zrotation Xrotation Yrotation
                JOINT lMid2
                {
                  OFFSET 3.10165 -0.590103 1.0647
                  CHANNELS 3 Zrotation Xrotation Yrotation
                  End Site
                  {
                    OFFSET 2.48547 -0.328903 0.83742
                  }
                }
              }
              JOINT lRing1
              {
                OFFSET 8.82822 0.546677 1.51678
                CHANNELS 3 Zrotation Xrotation Yrotation
                JOINT lRing2
                {
                  OFFSET 2.60934 -0.819778 -0.0198488
                  CHANNELS 3 Zrotation Xrotation Yrotation
                  End Site
                  {
                    OFFSET 2.33842 -0.294052 0.168128
                  }
                }
              }
              JOINT lPinky1
              {
                OFFSET 8.27202 -0.0477905 -0.4584
                CHANNELS 3 Zrotation Xrotation Yrotation
                JOINT lPinky2
                {
                  OFFSET 1.82734 -0.647385 -0.700984
                  CHANNELS 3 Zrotation Xrotation Yrotation
                  End Site
                  {
                    OFFSET 1.69225 -0.51767 -0.607171
                  }
                }
              }
            }
          }
        }
      }
    }
  }
  JOINT rButtock
  {
    OFFSET -8.77824 4.35084 1.2192
    CHANNELS 3 Zrotation Xrotation Yrotation
    JOINT rThigh
    {
      OFFSET 0 -1.70687 -2.19456
      CHANNELS 3 Zrotation Xrotation Yrotation
      JOINT rShin
      {
        OFFSET 0 -36.8199 0.73152
        CHANNELS 3 Zrotation Xrotation Yrotation
        JOINT rFoot
        {
          OFFSET 0.73152 -45.1104 -5.12064
          CHANNELS 3 Zrotation Xrotation Yrotation
          End Site
          {
            OFFSET -1.1221 -3.69964 12.103
          }
        }
      }
    }
  }
  JOINT lButtock
  {
    OFFSET 8.77824 4.35084 1.2192
    CHANNELS 3 Zrotation Xrotation Yrotation
    JOINT lThigh
    {
      OFFSET 0 -1.70687 -2.19456
      CHANNELS 3 Zrotation Xrotation Yrotation
      JOINT lShin
      {
        OFFSET 0 -36.8199 0.73152
        CHANNELS 3 Zrotation Xrotation Yrotation
        JOINT lFoot
        {
          OFFSET -0.73152 -45.1104 -5.12064
          CHANNELS 3 Zrotation Xrotation Yrotation
          End Site
          {
            OFFSET 1.1221 -3.69964 12.103
          }
        }
      }
    }
  }
}
MOTION
Frames:	7
Frame Time:	0.00833333
13.987 78.0359 92.3509 -3.2191 0.9965 2.807 5.57643 0.123207 -0.271963 1.14056 -4.6474 -0.126513 0.165532 -7.06531 0.770477 -8.35216 3.42902 1.72131 -0.0 0.0 0.0 -0.0 0.0 0.0 -1.29841e-13 -2.89085e-14 2.80329e-14 80.4185 8.90592 -0.635426 -12.454 -5.77214 22.492 -0.0830639 8.19474 1.15969 1.07928e-09 -6.4564e-10 7.62624e-10 1.86969e-09 -1.11861e-09 1.30941e-09 1.07928e-09 -6.4564e-10 7.62611e-10 7.73091 5.47488 0.417314 1.07928e-09 -6.45642e-10 7.62616e-10 2.90554 0.965183 0.102902 1.07928e-09 -6.45643e-10 7.62622e-10 10.2786 0.731801 0.0259123 1.07927e-09 -6.45641e-10 7.62629e-10 2.22167 -0.733487 -0.20892 -1.29875e-13 -2.89161e-14 2.77281e-14 -86.5887 25.3738 6.1162 17.4936 -10.1523 -32.8936 0.0646217 7.23671 -1.02254 9.8704e-10 1.37937e-09 7.83759e-10 1.71005e-09 2.38563e-09 1.34867e-09 9.87037e-10 1.37937e-09 7.83776e-10 -7.73091 5.47488 -0.417314 9.8704e-10 1.37937e-09 7.83758e-10 -2.90554 0.965183 -0.102902 9.87033e-10 1.37937e-09 7.83759e-10 -10.2786 0.731801 -0.0259123 9.87043e-10 1.37937e-09 7.83748e-10 -2.22167 -0.733487 0.20892 -2.03217e-16 0.0 -3.88251e-19 2.64699 -11.7794 0.344807 -0.166324 27.7022 0.466416 -1.07598 -12.2775 -2.21608 2.03217e-16 0.0 3.88251e-19 1.08933 -14.8939 -3.81899 0.153116 32.0248 -0.503336 0.439592 -13.8237 -0.0710976
14.0209 78.0259 92.405 -3.2263 0.9548 2.831 5.57948 0.169023 -0.277573 1.13816 -4.66947 -0.125009 0.154938 -7.09837 0.771923 -8.32225 3.38198 1.72532 -0.0 0.0 0.0 -0.0 0.0 0.0 -1.32819e-13 -3.31101e-14 2.53978e-14 80.3819 9.22254 -0.511696 -12.5534 -5.8445 22.6861 -0.0781698 7.95253 1.12496 1.17644e-09 -8.41549e-10 8.78228e-10 2.03843e-09 -1.45813e-09 1.50885e-09 1.17644e-09 -8.41549e-10 8.7822e-10 7.73091 5.47488 0.417314 1.17644e-09 -8.41552e-10 8.78219e-10 2.90554 0.965183 0.102902 1.17645e-09 -8.41552e-10 8.78226e-10 10.2786 0.731801 0.0259123 1.17644e-09 -8.41551e-10 8.78233e-10 2.22167 -0.733487 -0.20892 -1.3284e-13 -3.31102e-14 2.514e-14 -86.5969 25.3541 6.1586 17.4588 -10.1163 -32.8169 0.067387 7.38984 -1.04442 1.10154e-09 1.48675e-09 8.34333e-10 1.90856e-09 2.57116e-09 1.43514e-09 1.10154e-09 1.48675e-09 8.34352e-10 -7.73091 5.47488 -0.417314 1.10154e-09 1.48675e-09 8.34332e-10 -2.90554 0.965183 -0.102902 1.10153e-09 1.48675e-09 8.34334e-10 -10.2786 0.731801 -0.0259123 1.10154e-09 1.48675e-09 8.34326e-10 -2.22167 -0.733487 0.20892 -2.03217e-16 0.0 -3.88251e-19 2.64632 -11.7952 0.404944 -0.165647 27.7121 0.467665 -1.07883 -12.3073 -2.22255 2.03217e-16 0.0 3.88251e-19 1.08781 -14.9041 -3.76506 0.153222 32.0433 -0.504314 0.447017 -13.875 -0.0447606
14.0496 78.0139 92.444 -3.252 0.9268 2.8852 5.5877 0.218653 -0.281943 1.13423 -4.69096 -0.123644 0.143926 -7.1318 0.772536 -8.28748 3.32611 1.72729 -0.0 0.0 0.0 -0.0 0.0 0.0 -1.28235e-13 -3.8796e-14 2.03137e-14 80.3434 9.5276 -0.390819 -12.6476 -5.91341 22.8703 -0.0735262 7.71453 1.09087 1.18631e-09 -1.00325e-09 9.46707e-10 2.05603e-09 -1.73842e-09 1.62742e-09 1.18631e-09 -1.00325e-09 9.46703e-10 7.73091 5.47488 0.417314 1.18631e-09 -1.00326e-09 9.46697e-10 2.90554 0.965183 0.102902 1.18631e-09 -1.00326e-09 9.46704e-10 10.2786 0.731801 0.0259123 1.1863e-09 -1.00325e-09 9.4671e-10 2.22167 -0.733487 -0.20892 -1.28248e-13 -3.87893e-14 2.00951e-14 -86.6054 25.3311 6.19757 17.4231 -10.0796 -32.7385 0.0702798 7.54439 -1.06652 1.12738e-09 1.45633e-09 8.16189e-10 1.95336e-09 2.51828e-09 1.40338e-09 1.12738e-09 1.45633e-09 8.16208e-10 -7.73091 5.47488 -0.417314 1.12738e-09 1.45633e-09 8.16186e-10 -2.90554 0.965183 -0.102902 1.12737e-09 1.45633e-09 8.16189e-10 -10.2786 0.731801 -0.0259123 1.12738e-09 1.45633e-09 8.16184e-10 -2.22167 -0.733487 0.20892 -2.03217e-16 0.0 -3.88251e-19 2.64866 -11.8057 0.460637 -0.165119 27.7189 0.468689 -1.08097 -12.3342 -2.22693 2.03217e-16 0.0 3.88251e-19 1.09066 -14.9133 -3.71203 0.153406 32.0639 -0.505277 0.452802 -13.9241 -0.0241925
14.0741 78.0052 92.4916 -3.2681 0.8805 2.9135 5.59709 0.267871 -0.28585 1.12913 -4.70938 -0.123297 0.13803 -7.16165 0.774241 -8.25523 3.25995 1.72862 -0.0 0.0 0.0 -0.0 0.0 0.0 -1.14646e-13 -4.19492e-14 1.4064e-14 80.3012 9.81488 -0.272898 -12.7323 -5.97565 23.0366 -0.0692529 7.48729 1.05836 1.09484e-09 -1.04049e-09 8.88628e-10 1.89773e-09 -1.80286e-09 1.5277e-09 1.09484e-09 -1.04049e-09 8.88625e-10 7.73091 5.47488 0.417314 1.09484e-09 -1.04049e-09 8.88618e-10 2.90554 0.965183 0.102902 1.09484e-09 -1.04049e-09 8.88624e-10 10.2786 0.731801 0.0259123 1.09483e-09 -1.04049e-09 8.88631e-10 2.22167 -0.733487 -0.20892 -1.14659e-13 -4.19383e-14 1.38652e-14 -86.6172 25.3142 6.23293 17.3864 -10.0418 -32.6577 0.0727654 7.67343 -1.08499 1.03426e-09 1.29633e-09 7.30631e-10 1.792e-09 2.2414e-09 1.25602e-09 1.03425e-09 1.29633e-09 7.3065e-10 -7.73091 5.47488 -0.417314 1.03426e-09 1.29633e-09 7.30628e-10 -2.90554 0.965183 -0.102902 1.03425e-09 1.29633e-09 7.3063e-10 -10.2786 0.731801 -0.0259123 1.03426e-09 1.29633e-09 7.30628e-10 -2.22167 -0.733487 0.20892 -2.03217e-16 0.0 -3.88251e-19 2.64573 -11.8112 0.49789 -0.164865 27.7216 0.468997 -1.08005 -12.3626 -2.22084 2.03217e-16 0.0 3.88251e-19 1.09034 -14.9233 -3.67177 0.15367 32.0869 -0.50623 0.457224 -13.9699 -0.00817368
14.1162 77.996 92.5324 -3.2479 0.8579 2.9514 5.6094 0.317067 -0.290946 1.12226 -4.72324 -0.125064 0.139701 -7.18715 0.778048 -8.22644 3.17888 1.73001 -0.0 0.0 0.0 -0.0 0.0 0.0 -8.30584e-14 -4.00781e-14 4.9537e-15 80.2539 10.0843 -0.156483 -12.8068 -6.03074 23.1831 -0.0651457 7.26379 1.02642 7.91269e-10 -8.27091e-10 5.53296e-10 1.3712e-09 -1.43259e-09 9.49713e-10 7.91272e-10 -8.27089e-10 5.53291e-10 7.73091 5.47488 0.417314 7.91268e-10 -8.27092e-10 5.5329e-10 2.90554 0.965183 0.102902 7.91272e-10 -8.2709e-10 5.53293e-10 10.2786 0.731801 0.0259123 7.91263e-10 -8.27089e-10 5.53301e-10 2.22167 -0.733487 -0.20892 -8.30861e-14 -4.00667e-14 4.75103e-15 -86.6329 25.3079 6.26221 17.3478 -10.0023 -32.573 0.0746056 7.76799 -1.09853 6.85132e-10 8.55355e-10 5.08865e-10 1.18705e-09 1.47887e-09 8.75195e-10 6.85129e-10 8.55353e-10 5.08882e-10 -7.73091 5.47488 -0.417314 6.85134e-10 8.55357e-10 5.08862e-10 -2.90554 0.965183 -0.102902 6.85125e-10 8.55357e-10 5.08864e-10 -10.2786 0.731801 -0.0259123 6.85138e-10 8.55358e-10 5.08861e-10 -2.22167 -0.733487 0.20892 -2.03217e-16 0.0 -3.88251e-19 2.63656 -11.8106 0.509915 -0.164955 27.7188 0.46822 -1.07503 -12.3926 -2.20079 2.03217e-16 0.0 3.88251e-19 1.08697 -14.9357 -3.64805 0.15406 32.1139 -0.507166 0.459175 -14.0105 -0.000400206
14.1444 77.9881 92.5797 -3.2543 0.8306 2.9839 5.62581 0.367989 -0.296334 1.11365 -4.73414 -0.12819 0.145665 -7.21032 0.782765 -8.19751 3.0851 1.73062 -0.0 0.0 0.0 -0.0 0.0 0.0 -3.71104e-14 -3.57986e-14 -7.02269e-15 80.2029 10.3387 -0.0420333 -12.8735 -6.08035 23.314 -0.0611909 7.04345 0.994955 3.18755e-10 -4.45225e-10 2.62475e-11 5.51549e-10 -7.70157e-10 4.11839e-11 3.18762e-10 -4.45223e-10 2.62382e-11 7.73091 5.47488 0.417314 3.18757e-10 -4.45227e-10 2.62469e-11 2.90554 0.965183 0.102902 3.18759e-10 -4.45222e-10 2.62464e-11 10.2786 0.731801 0.0259123 3.18751e-10 -4.45222e-10 2.62551e-11 2.22167 -0.733487 -0.20892 -3.71631e-14 -3.57891e-14 -7.24632e-15 -86.6511 25.3063 6.28632 17.3078 -9.9614 -32.4852 0.0760631 7.84304 -1.10928 1.39155e-10 1.80221e-10 1.73243e-10 2.40977e-10 3.11488e-10 2.99038e-10 1.39153e-10 1.80218e-10 1.73257e-10 -7.73091 5.47488 -0.417314 1.39156e-10 1.80221e-10 1.73241e-10 -2.90554 0.965183 -0.102902 1.3915e-10 1.8022e-10 1.73242e-10 -10.2786 0.731801 -0.0259123 1.39163e-10 1.80221e-10 1.73235e-10 -2.22167 -0.733487 0.20892 -2.03217e-16 0.0 -3.88251e-19 2.62514 -11.8041 0.505189 -0.16531 27.7113 0.466701 -1.06728 -12.4224 -2.17166 2.03217e-16 0.0 3.88251e-19 1.08387 -14.9492 -3.63434 0.154561 32.1443 -0.508084 0.458869 -14.0472 -0.00018998
14.1764 77.9805 92.6258 -3.2845 0.824 3.0149 5.64153 0.418446 -0.29897 1.10464 -4.74424 -0.130776 0.152863 -7.23136 0.787014 -8.16904 2.98734 1.72951 -0.0 0.0 0.0 -0.0 0.0 0.0 5.68875e-15 -3.27546e-14 -1.80471e-14 80.1512 10.576 0.0674713 -12.9327 -6.12461 23.4302 -0.0577188 6.84253 0.966292 -1.05839e-10 -1.1715e-10 -4.17609e-10 -1.84812e-10 -2.01111e-10 -7.23699e-10 -1.05829e-10 -1.17148e-10 -4.17623e-10 7.73091 5.47488 0.417314 -1.05836e-10 -1.17152e-10 -4.17604e-10 2.90554 0.965183 0.102902 -1.05835e-10 -1.17146e-10 -4.17608e-10 10.2786 0.731801 0.0259123 -1.05842e-10 -1.17145e-10 -4.17599e-10 2.22167 -0.733487 -0.20892 5.6097e-15 -3.27484e-14 -1.83041e-14 -86.6714 25.3043 6.31018 17.2676 -9.92045 -32.3972 0.077315 7.90752 -1.11851 -3.39699e-10 -4.23548e-10 -1.38213e-10 -5.88882e-10 -7.32589e-10 -2.35888e-10 -3.397e-10 -4.23552e-10 -1.38202e-10 -7.73091 5.47488 -0.417314 -3.39698e-10 -4.23551e-10 -1.38214e-10 -2.90554 0.965183 -0.102902 -3.39702e-10 -4.23552e-10 -1.38215e-10 -10.2786 0.731801 -0.0259123 -3.3969e-10 -4.23551e-10 -1.38224e-10 -2.22167 -0.733487 0.20892 -2.03217e-16 0.0 -3.88251e-19 2.61064 -11.7942 0.492624 -0.165832 27.702 0.465011 -1.05805 -12.4527 -2.13763 2.03217e-16 0.0 3.88251e-19 1.07823 -14.9611 -3.62706 0.155081 32.1747 -0.509001 0.458586 -14.083 0.0002492
